<mxfile host="app.diagrams.net" modified="2024-05-06T00:35:31.682Z" agent="Mozilla/5.0 (Macintosh; Intel Mac OS X 10_15_7) AppleWebKit/537.36 (KHTML, like Gecko) Chrome/124.0.0.0 Safari/537.36" version="24.2.2" etag="S4mj3DjndiW3FE63otpO" type="github">
  <diagram name="Page-1" id="ZEYLgESXhvkGY8aNWNYq">
    <mxGraphModel>
      <root>
        <mxCell id="0" />
        <mxCell id="1" parent="0" />
      </root>
    </mxGraphModel>
  </diagram>
</mxfile>
